<svg viewBox="0 0 40 40" xmlns="http://www.w3.org/2000/svg"><path d="m0 0h40v40h-40z" fill="#f8b133"/><path d="m34.07 18a10.8 10.8 0 0 0 -1.31-1.57 11 11 0 0 0 -6.15-3.12 11.07 11.07 0 0 0 -22.01 1.69v20.33h20.34a11 11 0 0 0 7.82-3.24 12.06 12.06 0 0 0 1.31-1.58 11.08 11.08 0 0 0 0-12.51zm-21.72 5.88c-.92-2.73-1.85-5.46-2.77-8.18v-.06a6 6 0 0 1 .65-2.7 6.14 6.14 0 0 1 1.31-1.71 6.33 6.33 0 0 1 6.16-1.09 5.37 5.37 0 0 1 2.82 2.2 3.19 3.19 0 0 1 .54 2.16 2.8 2.8 0 0 1 -.58 1.24l-.25.28-.2.17-5.92 5.93zm16.65 4.76a5.91 5.91 0 0 1 -4.4 2h-.06l-8.18-2.78 1.76-1.76c2-2 3.95-3.94 5.92-5.92l.18-.19.27-.26a2.76 2.76 0 0 1 1.24-.57 3.09 3.09 0 0 1 2.17.54 5.47 5.47 0 0 1 2.2 2.81 6.33 6.33 0 0 1 -1.1 6.13z" fill="#fff"/></svg>