<svg xmlns="http://www.w3.org/2000/svg" xmlns:xlink="http://www.w3.org/1999/xlink" viewBox="0 0 512 343.671"><defs><path id="a" d="M0 0h512v343.671H0z"/></defs><clipPath id="b"><use xlink:href="#a" overflow="visible"/></clipPath><path d="M92.301 257.078l148.529-66.699c9.179-4.052 14.165-6.154 25.408-.123l65.346 39.281 69.28-31.792c5.668-2.41 9.347-1.788 18.335 4.021l89.949 54.745-.002-11.473-89.944-55.115c-12.08-7.28-14.258-5.6-18.335-4.021l-69.28 32.167-65.296-39.308c-9.206-4.8-16.935-3.702-25.804.337L92.271 245.653l.03 11.425z" clip-path="url(#b)" fill-rule="evenodd" clip-rule="evenodd" fill="#0062af"/><path d="M92.307 245.643l148.526-66.701c8.169-3.714 16.008-5.092 25.459-.181l65.296 39.309 69.28-32.167c5.424-2.09 7.554-2.46 18.335 4.022l89.941 55.115-.002-11.473-89.936-55.483c-11.281-7.003-14.127-5.865-18.335-4.022l-69.29 32.509-65.235-39.308c-10.775-5.696-15.822-4.354-25.476.174L92.269 234.166l.038 11.477z" clip-path="url(#b)" fill-rule="evenodd" clip-rule="evenodd" fill="#0091d4"/><path d="M92.303 234.156l148.564-66.719c9.176-4.052 14.233-6.205 25.476-.174l65.246 39.326 69.282-32.527c3.503-1.128 6.099-3.576 18.335 4.021l89.934 55.483-.002-11.473-89.929-55.85c-11.767-6.93-14.127-5.865-18.335-4.021l-69.29 32.882-65.185-39.336c-10.329-5.696-15.804-4.578-25.569.209L92.275 222.668l.028 11.488z" clip-path="url(#b)" fill-rule="evenodd" clip-rule="evenodd" fill="#00a6e3"/><path d="M92.31 222.659l148.524-66.699c9.138-4.162 14.318-6.225 25.564-.194l65.185 39.339 69.29-32.885c3.752-1.642 7.179-2.984 18.335 4.021l89.928 55.85-.002-11.473L419.21 154.4c-6.847-3.546-11.327-7.063-18.335-4.021l-69.292 33.25-65.132-39.359c-10.327-5.696-15.847-4.568-25.612.219l-148.571 66.71.042 11.46z" clip-path="url(#b)" fill-rule="evenodd" clip-rule="evenodd" fill="#98d2f0"/><path d="M92.302 211.19l148.79-66.92c9.179-4.049 14.114-6.031 25.358 0l65.132 39.361 69.292-33.25c6.278-2.171 9.367-1 18.335 4.019l89.923 56.22-.002-11.475-89.916-56.586c-10.385-6.517-14.127-5.862-18.335-4.021l-69.295 33.602-65.082-39.366c-10.327-5.696-16.383-4.427-26.149.36L92.27 199.725l.032 11.465z" clip-path="url(#b)" fill-rule="evenodd" clip-rule="evenodd" fill="#b0dcf2"/><path d="M92.303 268.551l148.526-66.693c9.176-4.052 14.112-6.137 25.358-.106l65.399 39.271 69.275-31.437c5.9-2.468 8.171-2.216 18.335 4.021l89.951 54.38v-11.475l-89.949-54.747c-8.892-5.691-11.954-6.497-18.335-4.019l-69.28 31.792-65.344-39.281c-10.33-5.696-15.643-4.666-25.411.123L92.265 257.086l.038 11.465z" clip-path="url(#b)" fill-rule="evenodd" clip-rule="evenodd" fill="#2e3191"/><path d="M280.092 276.487c-.259-1.219-.811-2.065-1.642-2.533a5.493 5.493 0 00-2.73-.703c-.959 0-1.826.237-2.599.708-.773.471-1.38 1.168-1.831 2.103-.446.929-.667 2.055-.667 3.379 0 1.982.403 3.563 1.214 4.732.811 1.173 2.133 1.76 3.956 1.76.554 0 1.126-.116 1.715-.353.589-.232 1.141-.665 1.644-1.304.506-.637.866-1.513 1.088-2.621h2.042c-.259 1.76-.826 3.097-1.705 4.009-.881.917-1.77 1.498-2.674 1.755-.904.254-1.72.38-2.44.38a7.4 7.4 0 01-2.632-.468 6.247 6.247 0 01-2.234-1.471c-.667-.67-1.189-1.534-1.571-2.599-.385-1.063-.577-2.314-.577-3.757 0-1.199.166-2.299.501-3.296.327-.997.813-1.856 1.443-2.571a6.403 6.403 0 012.297-1.665c.901-.393 1.911-.587 3.034-.587 1.269 0 2.372.234 3.306.705.934.473 1.657 1.098 2.171 1.876.514.778.826 1.617.932 2.521h-2.041zm16.237 10.899h-11.5v-15.589h11.352v1.868h-9.25v4.772h8.529v1.868h-8.529v5.213h9.398zm5.084-1.802h4.49c1.075 0 1.896-.252 2.458-.76.561-.504.843-1.201.843-2.088 0-1.748-1.216-2.624-3.649-2.624h-4.142v5.472zm0-7.189h3.795c1.068 0 1.878-.191 2.433-.572.554-.385.828-1.032.828-1.944 0-.753-.254-1.322-.763-1.705-.511-.383-1.332-.574-2.473-.574h-3.82v4.795zm-2.102-6.598h6.862c.932 0 1.732.176 2.395.529.662.35 1.161.821 1.498 1.415a3.96 3.96 0 01.506 1.982c0 1.521-.695 2.606-2.08 3.261.813.332 1.486.755 2.02 1.277.531.519.796 1.362.796 2.523a4.5 4.5 0 01-.612 2.319c-.411.697-1.015 1.254-1.821 1.664-.803.413-1.758.619-2.858.619h-6.706v-15.589zm25.981 15.589h-11.5v-15.589h11.352v1.868h-9.25v4.772h8.529v1.868h-8.529v5.213h9.398zm5.084-8.358h4.424c2.115 0 3.173-.934 3.173-2.798 0-1.74-1.03-2.609-3.08-2.609h-4.517v5.407zm0 8.38h-2.103v-15.59h7.245c.937 0 1.755.189 2.458.562a3.918 3.918 0 011.609 1.566c.373.67.559 1.423.559 2.261 0 1.241-.38 2.324-1.146 3.243-.758.919-1.921 1.377-3.48 1.377h-5.142v6.581zm19.172-14.157c-1.105 0-2.07.272-2.893.811-.821.544-1.45 1.292-1.889 2.251-.438.959-.655 2.052-.655 3.279s.222 2.319.66 3.281c.438.959 1.07 1.712 1.891 2.251.826.539 1.785.808 2.886.808 1.095 0 2.055-.269 2.881-.808.821-.539 1.453-1.292 1.891-2.251.438-.962.66-2.055.66-3.281s-.219-2.319-.655-3.279c-.438-.959-1.068-1.707-1.891-2.251-.821-.539-1.788-.811-2.886-.811m-.005 14.548c-1.378 0-2.559-.257-3.543-.768-.98-.509-1.765-1.176-2.352-1.997a8.319 8.319 0 01-1.259-2.644 10.77 10.77 0 01-.38-2.795c0-.924.128-1.858.38-2.8a8.319 8.319 0 011.259-2.644c.584-.821 1.37-1.488 2.352-1.999.987-.509 2.168-.766 3.543-.766 1.38 0 2.558.254 3.543.76.985.506 1.77 1.171 2.357 1.997.582.823 1 1.707 1.259 2.652.252.942.378 1.876.378 2.8 0 .924-.126 1.853-.378 2.795a8.344 8.344 0 01-1.264 2.649c-.587.821-1.372 1.486-2.352 1.997-.982.508-2.16.763-3.543.763m9.403-7.402h5.323v1.957h-5.323zm10.034 6.989h-2.103v-15.589h2.103v7.554l7.551-7.554h2.911l-6.494 6.297 6.671 9.292h-2.735l-5.454-7.818-2.45 2.347z" clip-path="url(#b)" fill="#58595b"/><path d="M388.061 280.98l-2.302-6.865h-.04l-2.496 6.865h4.838zm-5.49 1.869l-1.629 4.538h-2.171l5.86-15.59h2.39l5.643 15.59h-2.299l-1.544-4.538h-6.25zm14.16 2.735h4.49c1.075 0 1.896-.252 2.458-.76.561-.504.844-1.201.844-2.088 0-1.748-1.216-2.624-3.649-2.624h-4.142v5.472zm0-7.189h3.795c1.068 0 1.878-.191 2.433-.572.554-.385.828-1.032.828-1.944 0-.753-.252-1.322-.763-1.705s-1.332-.574-2.473-.574h-3.82v4.795zm-2.103-6.598h6.862c.932 0 1.732.176 2.395.529.662.35 1.161.821 1.498 1.415.337.592.506 1.254.506 1.982 0 1.521-.695 2.606-2.08 3.261.813.332 1.486.755 2.02 1.277.531.519.796 1.362.796 2.523a4.5 4.5 0 01-.612 2.319c-.411.697-1.015 1.254-1.821 1.664-.803.413-1.758.619-2.858.619h-6.706v-15.589zm16.584 15.589h-2.103v-15.589h2.103v7.554l7.552-7.554h2.909l-6.492 6.297 6.67 9.292h-2.734l-5.455-7.818-2.45 2.347z" clip-path="url(#b)" fill="#58595b"/><path d="M430.293 280.98l-2.302-6.865h-.04l-2.496 6.865h4.838zm-5.489 1.869l-1.629 4.538h-2.171l5.86-15.59h2.39l5.643 15.59h-2.299l-1.544-4.538h-6.25zm17.022-4.473c.992 0 1.881-.209 2.667-.63.786-.415 1.176-1.01 1.176-1.778 0-1.053-.373-1.768-1.12-2.161-.745-.385-1.604-.582-2.571-.582-1.06 0-1.974.249-2.752.753-.776.504-1.191 1.309-1.241 2.42h-1.979c0-.705.181-1.435.541-2.193.368-.758 1.01-1.41 1.941-1.959.932-.546 2.173-.823 3.729-.823 1.053 0 2.002.186 2.846.551.839.368 1.498.886 1.964 1.556.466.665.703 1.428.703 2.284 0 .987-.305 1.74-.909 2.261-.604.521-1.257.854-1.952.995.521.083 1.048.285 1.576.602.526.317.972.743 1.335 1.284.358.541.539 1.163.539 1.868 0 1.105-.297 2.032-.894 2.785-.594.753-1.36 1.304-2.302 1.659a8.343 8.343 0 01-2.971.529c-1.317 0-2.41-.199-3.279-.597-.864-.398-1.523-.891-1.974-1.481-.448-.589-.76-1.179-.924-1.773-.166-.589-.249-1.126-.249-1.597h1.977c0 1.292.425 2.221 1.274 2.79s1.901.854 3.163.854c.599 0 1.214-.108 1.843-.325a3.705 3.705 0 001.579-1.025c.423-.463.632-1.043.632-1.733 0-1.037-.436-1.785-1.314-2.234-.881-.451-1.949-.675-3.201-.675-.627 0-1.141.013-1.546.045v-1.717c.376.032.94.047 1.693.047m20.022-1.889c-.262-1.219-.811-2.065-1.642-2.533a5.501 5.501 0 00-2.73-.703c-.959 0-1.828.237-2.599.708-.773.471-1.383 1.168-1.831 2.103-.446.929-.667 2.055-.667 3.379 0 1.982.403 3.563 1.214 4.732.811 1.173 2.133 1.76 3.956 1.76.554 0 1.126-.116 1.715-.353.589-.232 1.141-.665 1.642-1.304.509-.637.869-1.513 1.09-2.621h2.042c-.259 1.76-.826 3.097-1.705 4.009-.881.917-1.77 1.498-2.674 1.755-.906.254-1.72.38-2.44.38a7.372 7.372 0 01-2.629-.468 6.249 6.249 0 01-2.239-1.471c-.665-.67-1.186-1.534-1.569-2.599-.385-1.063-.577-2.314-.577-3.757 0-1.199.166-2.299.499-3.296.33-.997.816-1.856 1.445-2.571a6.377 6.377 0 012.297-1.665c.901-.393 1.911-.587 3.034-.587 1.269 0 2.372.234 3.306.705.934.473 1.657 1.098 2.171 1.876.514.778.826 1.617.932 2.521h-2.041zm6.838 10.899h-2.102v-15.589h2.102v7.554l7.552-7.554h2.911l-6.492 6.297 6.669 9.292h-2.735l-5.455-7.818-2.45 2.347zm14.41-2.996h.048l7.796-12.593h2.493v15.59h-2.035v-12.593h-.045l-7.927 12.593h-2.367v-15.59h2.037zm23.22-15.391c-.224 1.967-1.38 2.949-3.46 2.949-1.939 0-3.017-.982-3.238-2.949h1.068c.164.496.338.841.521 1.04.395.448 1.002.672 1.823.672.76 0 1.289-.159 1.581-.478.295-.317.514-.728.66-1.234h1.045zm-7.544 15.391h.048l7.796-12.593h2.493v15.59h-2.037v-12.593h-.043l-7.927 12.593h-2.367v-15.59h2.037v12.593zm-223.268 25.971v-9.075c-.992 0-1.868.159-2.626.473a3.753 3.753 0 00-1.785 1.496c-.431.68-.645 1.536-.645 2.571 0 1.032.214 1.886.645 2.566a3.763 3.763 0 001.785 1.493c.758.315 1.634.476 2.626.476m2.08-9.075v9.075c1 0 1.878-.161 2.639-.476a3.715 3.715 0 001.783-1.496c.43-.682.645-1.536.645-2.564 0-1.03-.214-1.889-.645-2.568a3.703 3.703 0 00-1.783-1.498c-.76-.315-1.639-.473-2.639-.473m0-1.63c1.178 0 2.228.166 3.14.499.914.33 1.672.786 2.281 1.362a5.704 5.704 0 011.365 1.974c.3.743.451 1.521.451 2.334a6.13 6.13 0 01-.451 2.327 5.666 5.666 0 01-1.37 1.987c-.609.584-1.37 1.043-2.276 1.372-.904.332-1.954.499-3.14.499v1.607h-2.08v-1.607c-1.183 0-2.229-.166-3.138-.499-.909-.33-1.665-.788-2.271-1.37a5.76 5.76 0 01-1.365-1.982 6.179 6.179 0 01-.453-2.334c0-.818.154-1.596.461-2.342.302-.74.76-1.403 1.362-1.982.604-.574 1.362-1.032 2.269-1.367.909-.335 1.954-.501 3.135-.501v-1.607h2.08v1.63zm21.156 13.961h-11.501v-15.59h11.352v1.869h-9.249v4.772h8.529v1.868h-8.529v5.213h9.398zm4.729-1.868h7.318v-11.853h-6.295v7.643c-.001 1.596-.341 2.998-1.023 4.21m-1.126 1.868v2.909h-1.906v-4.777h1.037c.37-.602.632-1.234.788-1.891.156-.66.232-1.43.232-2.319v-9.511h10.392v13.721h1.201v4.777h-1.906v-2.909h-9.838zm25.36 0h-11.501v-15.59h11.352v1.869h-9.249v4.772h8.529v1.868h-8.529v5.213h9.398zm5.083-8.358h4.424c2.115 0 3.17-.934 3.17-2.798 0-1.74-1.027-2.609-3.077-2.609h-4.517v5.407zm0 8.38h-2.103v-15.59h7.245c.937 0 1.755.189 2.458.562a3.918 3.918 0 011.609 1.566c.373.67.559 1.423.559 2.261 0 1.241-.38 2.324-1.146 3.243-.758.919-1.921 1.377-3.48 1.377h-5.142v6.581zm17.88-6.428l-2.302-6.865h-.04l-2.496 6.865h4.838zm-5.49 1.869l-1.629 4.538h-2.171l5.86-15.59h2.39l5.643 15.59h-2.299l-1.544-4.538h-6.25zm14.851-9.185v9.511c0 1.211-.196 2.153-.589 2.818-.39.67-.891 1.118-1.496 1.35-.607.232-1.294.348-2.065.348v-1.889c.846 0 1.415-.224 1.71-.677.295-.451.443-1.103.443-1.954V298.03h10.423v15.587h-2.105v-13.721h-6.321zm13.79 11.921h4.517c2.05 0 3.077-.871 3.077-2.604 0-1.871-1.055-2.803-3.17-2.803h-4.424v5.407zm0-7.209h5.142c1.06 0 1.939.224 2.634.67.695.448 1.201 1.022 1.516 1.732.315.705.476 1.448.476 2.226 0 .836-.186 1.589-.559 2.259a3.943 3.943 0 01-1.609 1.561c-.703.373-1.521.562-2.458.562h-7.245v-15.59h2.103v6.58zm22.624-6.579h2.103v15.59h-2.103v-7.275H388.3v7.275h-2.103v-15.59h2.103v6.449h8.141zm7.534 13.788h4.276c2.052 0 3.082-.871 3.082-2.604 0-1.871-1.058-2.803-3.17-2.803h-4.188v5.407zm13.477 1.801h-2.103v-15.59h2.103v15.59zm-13.477-9.01h4.903c1.06 0 1.941.224 2.634.67.695.448 1.201 1.022 1.516 1.732.315.705.476 1.448.476 2.226 0 .836-.186 1.589-.559 2.259a3.943 3.943 0 01-1.609 1.561c-.703.373-1.521.562-2.458.562h-7.005v-15.59h2.103v6.58zm26.365-9.377c-.224 1.967-1.377 2.949-3.46 2.949-1.939 0-3.017-.982-3.238-2.949h1.068c.164.496.338.841.521 1.04.395.448 1.002.672 1.823.672.76 0 1.289-.159 1.581-.478.295-.317.514-.728.66-1.234h1.045zm-7.545 15.391h.048l7.796-12.593h2.493v15.59h-2.035v-12.593h-.045l-7.927 12.593h-2.367v-15.59h2.037v12.593z" clip-path="url(#b)" fill="#58595b"/><path d="M430.34 295.232c-.224 1.964-1.38 2.949-3.46 2.949-1.939 0-3.017-.985-3.238-2.949h1.068c.161.494.335.839.521 1.038.393.448 1.002.672 1.823.672.76 0 1.289-.159 1.581-.476.292-.32.514-.728.66-1.234h1.045zm-7.544 15.389h.045l7.799-12.593h2.493v15.59h-2.037v-12.593h-.043l-7.93 12.593h-2.365v-15.59h2.037v12.593zm-18.821 1.196h4.276c2.052 0 3.08-.871 3.08-2.604 0-1.871-1.055-2.803-3.17-2.803h-4.185v5.407zm13.475 1.8h-2.103v-15.59h2.103v15.59zm-13.475-9.01h4.903c1.06 0 1.939.224 2.634.67.695.448 1.201 1.022 1.516 1.732a5.4 5.4 0 01.473 2.226c0 .836-.184 1.589-.556 2.259a3.943 3.943 0 01-1.609 1.561c-.703.373-1.521.562-2.458.562h-7.005v-15.59h2.103v6.58zm-7.534-6.58h2.103v15.59h-2.103v-7.272H388.3v7.272h-2.103v-15.59h2.103v6.449h8.141v-6.449zm-22.623 13.79h4.515c2.052 0 3.08-.871 3.08-2.604 0-1.871-1.058-2.803-3.17-2.803h-4.424v5.407zm0-7.21h5.142c1.06 0 1.939.224 2.634.67.695.448 1.201 1.022 1.516 1.732a5.4 5.4 0 01.473 2.226c0 .836-.184 1.589-.557 2.259a3.933 3.933 0 01-1.612 1.561c-.7.373-1.519.562-2.455.562h-7.245v-15.59h2.103v6.58zm-13.792-4.711v9.509c0 1.214-.194 2.153-.589 2.82-.39.67-.889 1.118-1.493 1.35-.609.232-1.297.348-2.067.348v-1.889c.849 0 1.415-.224 1.712-.677.292-.453.441-1.103.441-1.954v-11.375h10.423v15.59h-2.103v-13.721h-6.324zm-9.36 7.315l-2.301-6.862h-.04l-2.495 6.862h4.836zm-5.49 1.868l-1.629 4.538h-2.171l5.86-15.59h2.39l5.643 15.59h-2.299l-1.544-4.538h-6.25zm-12.389-3.82h4.424c2.113 0 3.17-.934 3.17-2.798 0-1.743-1.027-2.609-3.08-2.609h-4.515v5.407zm0 8.381h-2.103v-15.59h7.245c.937 0 1.755.189 2.458.562a3.93 3.93 0 011.609 1.566c.373.67.557 1.423.557 2.261 0 1.241-.38 2.324-1.143 3.243-.758.919-1.921 1.377-3.48 1.377h-5.142v6.581zm-5.084-.023h-11.5v-15.59h11.352v1.868h-9.249v4.772h8.529v1.868h-8.529v5.213h9.398v1.869zm-24.235-1.868h7.318v-11.853h-6.293v7.643c0 1.596-.34 2.998-1.025 4.21zm-1.126 1.868v2.908h-1.906v-4.777h1.04a6.491 6.491 0 00.788-1.891c.156-.657.232-1.43.232-2.319v-9.511h10.392v13.721h1.201v4.777h-1.906v-2.908h-9.841zm-3.603 0h-11.5v-15.59h11.352v1.868h-9.249v4.772h8.529v1.868h-8.529v5.213h9.398v1.869zm-23.235-3.256v-9.075c-.992 0-1.868.159-2.627.473a3.753 3.753 0 00-1.785 1.496c-.431.68-.642 1.536-.642 2.571 0 1.032.211 1.886.642 2.566a3.768 3.768 0 001.785 1.493c.758.315 1.635.476 2.627.476zm2.08-9.075v9.075c1 0 1.879-.161 2.639-.476a3.715 3.715 0 001.783-1.496c.431-.682.645-1.536.645-2.564 0-1.03-.214-1.889-.645-2.569a3.703 3.703 0 00-1.783-1.498c-.761-.314-1.64-.472-2.639-.472zm0-1.63c1.181 0 2.229.166 3.143.501.912.327 1.672.783 2.279 1.36a5.704 5.704 0 011.365 1.974c.3.743.451 1.521.451 2.334a6.13 6.13 0 01-.451 2.327 5.697 5.697 0 01-1.367 1.987c-.612.584-1.372 1.043-2.276 1.372-.906.332-1.954.499-3.143.499v1.607h-2.08v-1.607c-1.184 0-2.229-.166-3.138-.499-.909-.33-1.664-.788-2.271-1.37a5.76 5.76 0 01-1.365-1.982 6.179 6.179 0 01-.453-2.334c0-.818.154-1.596.461-2.342a5.8 5.8 0 011.362-1.982c.604-.574 1.362-1.03 2.271-1.367.906-.335 1.954-.501 3.133-.501v-1.607h2.08v1.63zM506.316 269c-.224 1.964-1.377 2.949-3.457 2.949-1.941 0-3.019-.985-3.241-2.949h1.068c.164.496.338.839.521 1.038.395.448 1.002.675 1.826.675.758 0 1.287-.159 1.579-.478.295-.317.514-.728.66-1.234h1.044zm-7.545 15.391h.048l7.796-12.593h2.495v15.587h-2.037v-12.591h-.045l-7.927 12.591h-2.367v-15.587h2.037v12.593zm-15.675 0h.048l7.796-12.593h2.493v15.587h-2.035v-12.591h-.045l-7.927 12.591h-2.367v-15.587h2.037v12.593zm-14.409 2.994h-2.103v-15.587h2.103v7.552l7.552-7.552h2.909l-6.492 6.295 6.671 9.292h-2.737l-5.452-7.819-2.45 2.349v5.47zm-6.839-10.898c-.262-1.219-.811-2.065-1.644-2.533a5.484 5.484 0 00-2.727-.703c-.959 0-1.828.237-2.599.708-.773.471-1.383 1.168-1.831 2.103-.446.929-.67 2.055-.67 3.379 0 1.982.405 3.563 1.216 4.732.811 1.173 2.133 1.76 3.956 1.76.554 0 1.126-.116 1.715-.353.589-.232 1.141-.665 1.642-1.304.509-.637.869-1.513 1.09-2.621h2.04c-.257 1.76-.824 3.097-1.702 4.009-.881.917-1.77 1.498-2.674 1.755-.906.254-1.72.38-2.44.38a7.39 7.39 0 01-2.631-.468 6.255 6.255 0 01-2.236-1.471c-.665-.67-1.186-1.534-1.569-2.599-.385-1.063-.577-2.314-.577-3.757 0-1.199.166-2.299.499-3.296.33-.997.816-1.856 1.445-2.571a6.377 6.377 0 012.297-1.665c.902-.393 1.911-.587 3.034-.587 1.269 0 2.372.234 3.306.705.934.473 1.657 1.098 2.171 1.876.514.778.826 1.617.929 2.521h-2.04zm-20.022 1.888c.992 0 1.881-.209 2.667-.63.786-.415 1.176-1.01 1.176-1.775 0-1.053-.373-1.77-1.121-2.161-.745-.388-1.604-.584-2.571-.584-1.06 0-1.974.249-2.752.753-.776.504-1.191 1.309-1.241 2.422h-1.979c0-.708.181-1.438.541-2.193.368-.76 1.01-1.413 1.942-1.962.934-.546 2.173-.821 3.729-.821 1.053 0 2.002.184 2.846.549.839.37 1.498.886 1.964 1.556.466.665.703 1.43.703 2.284 0 .987-.305 1.74-.909 2.261-.604.521-1.256.854-1.949.995.521.083 1.045.287 1.574.602a4.24 4.24 0 011.335 1.284c.358.541.539 1.163.539 1.871 0 1.103-.297 2.03-.894 2.783a5.174 5.174 0 01-2.302 1.659 8.343 8.343 0 01-2.971.529c-1.317 0-2.41-.199-3.279-.597-.864-.398-1.523-.889-1.974-1.481-.448-.589-.76-1.179-.924-1.773-.166-.589-.249-1.126-.249-1.594h1.977c0 1.292.426 2.221 1.274 2.79.849.567 1.904.854 3.163.854.599 0 1.214-.111 1.846-.327a3.717 3.717 0 001.576-1.022c.423-.463.632-1.043.632-1.735 0-1.037-.436-1.783-1.315-2.231-.881-.453-1.949-.677-3.201-.677-.627 0-1.138.015-1.544.048v-1.72c.374.031.938.043 1.691.043zm-11.534 2.607l-2.302-6.864h-.038l-2.498 6.864h4.838zm-5.489 1.866l-1.627 4.538h-2.171l5.857-15.587h2.392l5.641 15.587h-2.297l-1.546-4.538h-6.249zm-13.591 4.537h-2.103v-15.587h2.103v7.552l7.552-7.552h2.909l-6.492 6.295 6.671 9.292h-2.737l-5.452-7.819-2.45 2.349v5.47zm-14.482-1.8h4.492c1.073 0 1.894-.254 2.455-.76.562-.504.844-1.201.844-2.087 0-1.748-1.216-2.624-3.649-2.624h-4.142v5.471zm0-7.192h3.795c1.068 0 1.878-.191 2.433-.572.554-.383.828-1.03.828-1.942 0-.753-.252-1.322-.763-1.705-.509-.383-1.332-.577-2.473-.577h-3.82v4.796zm-2.102-6.595h6.862c.932 0 1.732.176 2.395.529.662.35 1.161.821 1.498 1.413.338.594.506 1.257.506 1.984 0 1.521-.695 2.606-2.08 3.261.813.332 1.488.755 2.02 1.277.531.516.796 1.36.796 2.521a4.52 4.52 0 01-.612 2.322c-.408.697-1.012 1.254-1.821 1.664-.803.413-1.758.617-2.858.617h-6.706v-15.588zm-6.568 9.184l-2.302-6.864h-.04l-2.496 6.864h4.838zm-5.489 1.866l-1.629 4.538h-2.171l5.86-15.587h2.392l5.641 15.587h-2.297l-1.546-4.538h-6.25zm-13.591 4.537h-2.103v-15.587h2.103v7.552l7.552-7.552h2.908l-6.492 6.295 6.671 9.292h-2.737l-5.452-7.819-2.45 2.349v5.47zm-4.711-5.031h-5.323v-1.957h5.323v1.957zm-14.721-9.103c-1.106 0-2.07.272-2.891.811-.821.544-1.453 1.292-1.889 2.251-.438.959-.657 2.052-.657 3.279s.222 2.319.66 3.281c.438.959 1.07 1.712 1.891 2.251.826.539 1.785.808 2.886.808 1.095 0 2.055-.269 2.881-.808.821-.539 1.453-1.292 1.891-2.251.438-.962.66-2.055.66-3.281s-.217-2.319-.655-3.279c-.438-.959-1.068-1.707-1.891-2.251-.822-.539-1.786-.811-2.886-.811zm-.005 14.547c-1.377 0-2.556-.257-3.541-.766-.982-.511-1.768-1.179-2.352-1.999a8.284 8.284 0 01-1.262-2.644 10.763 10.763 0 01-.378-2.793c0-.927.126-1.861.378-2.803a8.263 8.263 0 011.262-2.644c.582-.821 1.367-1.488 2.352-1.997.987-.511 2.166-.768 3.541-.768 1.38 0 2.558.254 3.543.76.985.506 1.77 1.171 2.357 1.997a8.4 8.4 0 011.259 2.652c.252.942.38 1.876.38 2.803 0 .922-.129 1.851-.38 2.793a8.301 8.301 0 01-1.264 2.649c-.584.821-1.37 1.486-2.352 1.997-.98.512-2.161.763-3.543.763zm-19.166-8.77h4.424c2.113 0 3.17-.934 3.17-2.798 0-1.74-1.027-2.609-3.08-2.609h-4.515v5.407zm0 8.38h-2.103v-15.59h7.242c.939 0 1.758.189 2.458.562.7.378 1.239.896 1.612 1.566s.557 1.423.557 2.261c0 1.241-.38 2.324-1.143 3.243-.76.919-1.921 1.38-3.483 1.38h-5.139v6.578zm-5.084-.023h-11.5v-15.587h11.352v1.866h-9.249v4.774h8.529v1.866h-8.529v5.215h9.398v1.866zm-23.88-1.8h4.49c1.075 0 1.896-.254 2.458-.76.562-.504.844-1.201.844-2.087 0-1.748-1.216-2.624-3.649-2.624h-4.142v5.471zm0-7.192h3.795c1.068 0 1.878-.191 2.432-.572.554-.383.829-1.03.829-1.942 0-.753-.252-1.322-.763-1.705s-1.332-.577-2.473-.577h-3.82v4.796zm-2.103-6.595h6.862c.932 0 1.732.176 2.395.529.662.35 1.161.821 1.498 1.413.335.594.506 1.257.506 1.984 0 1.521-.695 2.606-2.08 3.261.813.332 1.486.755 2.02 1.277.531.516.796 1.36.796 2.521a4.52 4.52 0 01-.612 2.322c-.41.697-1.015 1.254-1.821 1.664-.803.413-1.758.617-2.858.617h-6.706v-15.588zm-2.981 15.587h-11.5v-15.587h11.352v1.866h-9.249v4.774h8.529v1.866h-8.529v5.215h9.398v1.866zm-16.237-10.898c-.259-1.219-.811-2.065-1.642-2.533a5.493 5.493 0 00-2.73-.703c-.959 0-1.826.237-2.599.708-.773.471-1.38 1.168-1.831 2.103-.446.929-.667 2.055-.667 3.379 0 1.982.403 3.563 1.214 4.732.811 1.173 2.133 1.76 3.956 1.76.554 0 1.126-.116 1.715-.353.589-.232 1.141-.665 1.644-1.304.506-.637.866-1.513 1.088-2.621h2.042c-.259 1.76-.826 3.097-1.705 4.009-.881.917-1.77 1.498-2.674 1.755-.904.254-1.72.38-2.44.38a7.4 7.4 0 01-2.632-.468 6.247 6.247 0 01-2.234-1.471c-.667-.67-1.189-1.534-1.571-2.599-.385-1.063-.577-2.314-.577-3.757 0-1.199.166-2.299.501-3.296.327-.997.813-1.856 1.443-2.571a6.403 6.403 0 012.297-1.665c.901-.393 1.911-.587 3.034-.587 1.269 0 2.372.234 3.306.705.934.473 1.657 1.098 2.171 1.876.514.778.826 1.617.932 2.521h-2.041z" clip-path="url(#b)" fill="none" stroke="#58595b" stroke-width=".526" stroke-miterlimit="22.926"/><path d="M92.303 199.716l148.544-66.699c9.813-4.573 14.411-6.275 25.658-.242l65.079 39.366 69.295-33.602c4.105-1.874 8.116-2.725 18.335 4.021l89.918 56.586-.005-11.473-89.908-56.953c-10.312-6.406-14.127-5.865-18.335-4.021l-69.3 33.978-65.026-39.399c-10.327-5.696-15.953-4.525-25.72.262l-148.57 66.716.035 11.46z" clip-path="url(#b)" fill-rule="evenodd" clip-rule="evenodd" fill="#def2f9"/><path d="M273.545 340.087c-.159.043-.39.065-.695.065a6.033 6.033 0 01-1.408-.239v-1.929c.355.202.705.305 1.06.305.556 0 .964-.254 1.221-.76l.929-1.863-6.381-11.425h2.624l4.885 9.116 3.951-9.116h2.41l-6.421 13.744c-.586 1.211-1.309 1.913-2.175 2.102m21.15-15.846h2.102v15.59h-2.102v-7.275h-8.141v7.275h-2.103v-15.59h2.103v6.449h8.141zm7.873 12.593h.048l7.796-12.593h2.493v15.59h-2.037v-12.594h-.043l-7.927 12.594h-2.367v-15.59h2.037zm16.16 1.194h4.49c1.075 0 1.896-.252 2.458-.76.561-.504.843-1.201.843-2.087 0-1.748-1.216-2.624-3.649-2.624h-4.142v5.471zm0-7.189h3.795c1.068 0 1.878-.191 2.433-.572.554-.385.828-1.032.828-1.944 0-.753-.254-1.322-.763-1.705-.511-.383-1.332-.574-2.473-.574h-3.82v4.795zm-2.103-6.598h6.862c.932 0 1.732.176 2.395.529.662.35 1.161.821 1.498 1.415a3.96 3.96 0 01.506 1.982c0 1.521-.695 2.606-2.08 3.261.813.332 1.486.755 2.02 1.277.531.519.796 1.362.796 2.523a4.5 4.5 0 01-.612 2.319c-.411.697-1.015 1.254-1.821 1.664-.803.413-1.758.619-2.858.619h-6.706v-15.589zm26.393 15.589h-11.5v-15.59h11.352v1.869h-9.25v4.772h8.53v1.868h-8.53v5.213h9.398zm5.496-8.358h4.424c2.115 0 3.17-.934 3.17-2.798 0-1.74-1.027-2.609-3.077-2.609h-4.517v5.407zm0 8.38h-2.103v-15.59h7.245c.937 0 1.755.189 2.458.562a3.918 3.918 0 011.609 1.566c.373.67.559 1.423.559 2.261 0 1.241-.38 2.324-1.146 3.243-.758.919-1.921 1.377-3.48 1.377h-5.142v6.581zm23.729-10.921c-.259-1.219-.811-2.065-1.642-2.533a5.501 5.501 0 00-2.73-.703c-.959 0-1.828.237-2.599.708-.773.471-1.382 1.168-1.831 2.103-.446.929-.667 2.055-.667 3.379 0 1.982.403 3.563 1.214 4.732.811 1.173 2.133 1.76 3.956 1.76.554 0 1.126-.116 1.715-.353.589-.232 1.141-.665 1.644-1.304.506-.637.866-1.513 1.088-2.621h2.042c-.259 1.76-.826 3.097-1.705 4.009-.881.917-1.77 1.498-2.674 1.755-.907.254-1.72.38-2.44.38a7.4 7.4 0 01-2.632-.468 6.255 6.255 0 01-2.236-1.471c-.665-.67-1.186-1.534-1.569-2.599-.385-1.063-.577-2.314-.577-3.755 0-1.201.166-2.302.499-3.299.33-.997.816-1.856 1.446-2.571a6.377 6.377 0 012.297-1.665c.901-.39 1.911-.587 3.034-.587 1.269 0 2.372.234 3.306.705.934.473 1.657 1.098 2.171 1.876.514.778.826 1.617.932 2.521h-2.042zm7.179 7.903h.048l7.796-12.593h2.493v15.59h-2.037v-12.594h-.043l-7.927 12.594h-2.367v-15.59h2.037zm12.704-12.593h12.659v1.866h-5.278v13.724h-2.103v-13.724h-5.278zm26.534 15.589h-11.5v-15.59h11.352v1.869h-9.25v4.772h8.53v1.868h-8.53v5.213h9.398zm2.04-15.589h12.659v1.866h-5.276v13.724h-2.102v-13.724H420.7z" clip-path="url(#b)" fill="#58595b"/><path d="M420.701 324.24h12.656v1.868h-5.276v13.721h-2.103v-13.721H420.7v-1.868zm-2.04 15.59h-11.5v-15.59h11.352v1.868h-9.249v4.772h8.529v1.868h-8.529v5.213h9.398v1.869zm-26.536-15.59h12.659v1.868h-5.275v13.721h-2.103v-13.721h-5.281v-1.868zm-12.704 12.594h.048l7.799-12.593h2.493v15.59h-2.037v-12.593h-.043l-7.93 12.593h-2.367v-15.59h2.037v12.593zm-7.177-7.905c-.262-1.219-.811-2.065-1.644-2.531a5.464 5.464 0 00-2.727-.703c-.96 0-1.828.234-2.599.705-.773.471-1.382 1.168-1.831 2.103-.446.929-.67 2.055-.67 3.379 0 1.984.405 3.566 1.216 4.734.811 1.171 2.13 1.758 3.956 1.758a4.63 4.63 0 001.715-.35c.589-.232 1.138-.667 1.642-1.307.506-.637.869-1.513 1.09-2.619h2.04c-.257 1.758-.823 3.097-1.705 4.009-.879.914-1.768 1.498-2.674 1.755-.904.252-1.717.38-2.437.38a7.372 7.372 0 01-2.632-.471 6.246 6.246 0 01-2.236-1.468c-.665-.67-1.186-1.536-1.569-2.599-.385-1.065-.577-2.317-.577-3.757 0-1.201.166-2.302.499-3.296.33-1 .816-1.856 1.445-2.574a6.377 6.377 0 012.297-1.665c.901-.39 1.911-.587 3.032-.587 1.272 0 2.375.237 3.309.708.932.473 1.657 1.095 2.171 1.874.514.778.826 1.617.929 2.521h-2.04zm-23.731 2.541h4.427c2.113 0 3.17-.932 3.17-2.795 0-1.743-1.027-2.609-3.08-2.609h-4.517v5.404zm0 8.383h-2.1v-15.59h7.242c.939 0 1.755.189 2.458.562a3.95 3.95 0 011.612 1.566c.37.67.557 1.42.557 2.261 0 1.241-.38 2.324-1.143 3.241-.76.919-1.921 1.38-3.483 1.38h-5.142v6.58zm-5.495-.023h-11.5v-15.59h11.352v1.868h-9.249v4.772h8.529v1.868h-8.529v5.213h9.398v1.869zm-24.29-1.803h4.49c1.075 0 1.896-.252 2.458-.76.559-.501.841-1.201.841-2.087 0-1.748-1.214-2.621-3.646-2.621h-4.142v5.468zm0-7.189h3.795c1.068 0 1.879-.191 2.433-.572.554-.383.829-1.032.829-1.944 0-.753-.254-1.319-.763-1.705-.511-.383-1.332-.574-2.473-.574h-3.82v4.795zm-2.103-6.598h6.862c.932 0 1.733.179 2.395.529.662.35 1.161.821 1.498 1.415.335.594.506 1.257.506 1.982 0 1.521-.695 2.606-2.08 3.261.813.332 1.486.755 2.02 1.279.531.516.796 1.36.796 2.521a4.5 4.5 0 01-.612 2.319c-.411.697-1.015 1.257-1.821 1.664-.803.413-1.758.619-2.858.619h-6.706V324.24zm-14.056 12.594h.045l7.799-12.593h2.493v15.59h-2.037v-12.593h-.043l-7.93 12.593h-2.367v-15.59h2.04v12.593zm-7.874-12.594h2.103v15.59h-2.103v-7.272h-8.141v7.272h-2.103v-15.59h2.103v6.449h8.141v-6.449zm-21.15 15.847c-.159.043-.39.065-.695.065a6.033 6.033 0 01-1.408-.239v-1.929c.355.202.705.305 1.06.305.556 0 .964-.254 1.221-.76l.929-1.863-6.381-11.425h2.624l4.885 9.116 3.951-9.116h2.41l-6.421 13.744c-.586 1.211-1.309 1.913-2.175 2.102z" clip-path="url(#b)" fill="none" stroke="#58595b" stroke-width=".526" stroke-miterlimit="22.926"/><path d="M225.676 339.387c-3.85 0-13.21-.332-15.326-.997v-11.584c1.586.725 9.481 1.088 10.977 1.088 2.825 0 4.878-1.239 6.162-3.717l.272-.559-26.212-50.3h15.245l17.491 36.357 13.233-36.357h14.474l-22.374 54.183c-1.065 2.576-2.516 4.749-4.276 6.54s-3.533 3.11-5.316 4.001c-1.781.892-3.216 1.345-4.35 1.345m-69.045-18.503v-30.059c-4.334 0-8.154 1.133-11.432 3.4-3.279 2.266-4.91 6.147-4.91 11.646 0 5.467 1.647 9.335 4.926 11.601 3.29 2.278 7.097 3.412 11.416 3.412m13.58-30.06v30.059a22.7 22.7 0 007.673-1.314c2.448-.876 4.503-2.43 6.164-4.681 1.647-2.236 2.475-5.243 2.475-9.018 0-3.777-.828-6.799-2.475-9.033-1.662-2.251-3.717-3.823-6.164-4.699a22.696 22.696 0 00-7.673-1.314m0-10.498c4.412 0 8.866.816 13.369 2.433 4.5 1.617 8.292 4.351 11.372 8.189 3.082 3.85 4.623 8.821 4.623 14.923 0 4.681-.922 8.685-2.765 12.009-1.843 3.321-4.258 5.966-7.22 7.93a31.293 31.293 0 01-9.516 4.273c-3.384.861-6.661 1.299-9.864 1.299v7.008h-13.58v-7.008c-3.186 0-6.494-.438-9.909-1.299a32.025 32.025 0 01-9.65-4.273c-3.022-1.964-5.484-4.623-7.355-7.945-1.889-3.324-2.825-7.328-2.825-11.994 0-4.699.937-8.715 2.825-12.039 1.871-3.337 4.334-5.981 7.371-7.96a31.674 31.674 0 019.634-4.246c3.384-.861 6.693-1.299 9.909-1.299v-6.963h13.58v6.962zM85.835 338.39h-13.58l-.254-229.158h13.58l.254 190.549 25.567-26.463h15.275l-24.968 26.647 28.08 38.425h-18.224l-19.402-28.548-6.328 6.527v22.021zm-38.517-43.773c-.861-3.143-2.251-5.814-4.183-7.99-1.934-2.176-5.349-3.264-10.226-3.264-4.185 0-7.932 1.738-11.208 5.213-3.279 3.457-4.926 9.32-4.926 17.552 0 4.092.559 7.824 1.692 11.178 1.133 3.352 2.901 6.041 5.318 8.035 2.402 2.009 5.452 3.004 9.123 3.004 2.521 0 4.772-.468 6.736-1.388 1.979-.937 3.609-2.327 4.923-4.185 1.315-1.843 2.236-4.079 2.75-6.676h13.611c-.937 4.802-2.599 9.018-4.986 12.611-2.402 3.611-5.558 6.404-9.471 8.416-3.926 1.992-8.534 2.989-13.82 2.989-5.832 0-10.997-1.297-15.484-3.911-4.485-2.599-7.99-6.482-10.498-11.631-2.506-5.152-3.76-11.359-3.76-18.609 0-7.358 1.299-13.611 3.911-18.79 2.599-5.182 6.164-9.063 10.71-11.662 4.533-2.614 9.637-3.913 15.303-3.913 4.606 0 8.685.71 12.218 2.13 3.535 1.405 6.421 3.264 8.685 5.56 2.251 2.279 3.974 4.757 5.137 7.431 1.178 2.659 1.858 5.286 2.055 7.899h-13.61z" clip-path="url(#b)" fill="#2e3191"/><path d="M225.676 339.387c-3.85 0-13.21-.332-15.326-.997v-11.584c1.586.725 9.481 1.088 10.977 1.088 2.825 0 4.878-1.239 6.162-3.717l.272-.559-26.212-50.3h15.245l17.491 36.357 13.233-36.357h14.474l-22.374 54.183c-1.065 2.576-2.516 4.749-4.276 6.54s-3.533 3.11-5.316 4.001c-1.781.892-3.216 1.345-4.35 1.345zm-69.045-18.503v-30.059c-4.334 0-8.154 1.133-11.432 3.4-3.279 2.266-4.91 6.147-4.91 11.646 0 5.467 1.647 9.335 4.926 11.601 3.29 2.278 7.097 3.412 11.416 3.412zm13.58-30.06v30.059a22.7 22.7 0 007.673-1.314c2.448-.876 4.503-2.43 6.164-4.681 1.647-2.236 2.475-5.243 2.475-9.018 0-3.777-.828-6.799-2.475-9.033-1.662-2.251-3.717-3.823-6.164-4.699a22.696 22.696 0 00-7.673-1.314zm0-10.498c4.412 0 8.866.816 13.369 2.433 4.5 1.617 8.292 4.351 11.372 8.189 3.082 3.85 4.623 8.821 4.623 14.923 0 4.681-.922 8.685-2.765 12.009-1.843 3.321-4.258 5.966-7.22 7.93a31.293 31.293 0 01-9.516 4.273c-3.384.861-6.661 1.299-9.864 1.299v7.008h-13.58v-7.008c-3.186 0-6.494-.438-9.909-1.299a32.025 32.025 0 01-9.65-4.273c-3.022-1.964-5.484-4.623-7.355-7.945-1.889-3.324-2.825-7.328-2.825-11.994 0-4.699.937-8.715 2.825-12.039 1.871-3.337 4.334-5.981 7.371-7.96a31.674 31.674 0 019.634-4.246c3.384-.861 6.693-1.299 9.909-1.299v-6.963h13.58v6.962zM85.835 338.39h-13.58l-.254-229.158h13.58l.254 190.549 25.567-26.463h15.275l-24.968 26.647 28.08 38.425h-18.224l-19.402-28.548-6.328 6.527v22.021zm-38.517-43.773c-.861-3.143-2.251-5.814-4.183-7.99-1.934-2.176-5.349-3.264-10.226-3.264-4.185 0-7.932 1.738-11.208 5.213-3.279 3.457-4.926 9.32-4.926 17.552 0 4.092.559 7.824 1.692 11.178 1.133 3.352 2.901 6.041 5.318 8.035 2.402 2.009 5.452 3.004 9.123 3.004 2.521 0 4.772-.468 6.736-1.388 1.979-.937 3.609-2.327 4.923-4.185 1.315-1.843 2.236-4.079 2.75-6.676h13.611c-.937 4.802-2.599 9.018-4.986 12.611-2.402 3.611-5.558 6.404-9.471 8.416-3.926 1.992-8.534 2.989-13.82 2.989-5.832 0-10.997-1.297-15.484-3.911-4.485-2.599-7.99-6.482-10.498-11.631-2.506-5.152-3.76-11.359-3.76-18.609 0-7.358 1.299-13.611 3.911-18.79 2.599-5.182 6.164-9.063 10.71-11.662 4.533-2.614 9.637-3.913 15.303-3.913 4.606 0 8.685.71 12.218 2.13 3.535 1.405 6.421 3.264 8.685 5.56 2.251 2.279 3.974 4.757 5.137 7.431 1.178 2.659 1.858 5.286 2.055 7.899h-13.61z" clip-path="url(#b)" fill="none" stroke="#2e3191" stroke-width=".526" stroke-miterlimit="22.926"/><path d="M56.869 132.23c.373-22.404-22.623-40.477-39.729-40.953 1.488 22.447 2.944 16.262 17.887 22.356 7.267 3.065 16.464 12.007 21.842 18.597" clip-path="url(#b)" fill-rule="evenodd" clip-rule="evenodd" fill="#ffca05"/><path d="M13.033 130.449c4.2.783 8.161.972 12.601 2.349 13.434 3.498 23.771 11.274 30.797 16.522-1.433-24.461-27.644-36.659-51.705-39.714l-.116 7.154c-.542 9.191 3.971 12.097 8.423 13.689" clip-path="url(#b)" fill-rule="evenodd" clip-rule="evenodd" fill="#c4d83d"/><path d="M57.629 117.088c2.264-17.103-11.966-36.224-24.935-40.726-2.314 17.476 1.385 13.009 11.118 21.374 5.23 4.48 10.244 10.866 13.817 19.352" clip-path="url(#b)" fill-rule="evenodd" clip-rule="evenodd" fill="#7670b2"/><path d="M13.087 184.394c2.002.305 36.795 1.803 44.622 15.477 5.034-38.598-46.125-39.246-56.976-42.489.929 5.077 3.417 22.87 12.354 27.012" clip-path="url(#b)" fill-rule="evenodd" clip-rule="evenodd" fill="#a44685"/><path d="M24.249 208.559c1.488.055 27.058-1.74 33.877 7.612.587-28.649-37.727-24.942-45.921-26.413 1.085 3.634 5.174 16.514 12.044 18.801" clip-path="url(#b)" fill-rule="evenodd" clip-rule="evenodd" fill="#00adee"/><path d="M9.837 154.352c3.405 1.992 36.017 2.513 48.152 21.377 4.754-34.514-38.981-40.59-56.976-43.637.93 4.633-.113 18.481 8.824 22.26" clip-path="url(#b)" fill-rule="evenodd" clip-rule="evenodd" fill="#eb2d62"/><path d="M102.173 132.23c-.373-22.404 22.626-40.477 39.731-40.953-1.491 22.447-2.946 16.262-17.889 22.356-7.267 3.065-16.463 12.007-21.842 18.597" clip-path="url(#b)" fill-rule="evenodd" clip-rule="evenodd" fill="#7bc2e3"/><path d="M146.01 130.449c-4.2.783-8.164.972-12.601 2.349-13.434 3.498-23.771 11.274-30.797 16.522 1.433-24.461 27.644-36.659 51.705-39.714l.116 7.154c.541 9.191-3.972 12.097-8.423 13.689" clip-path="url(#b)" fill-rule="evenodd" clip-rule="evenodd" fill="#9a94c8"/><path d="M101.413 117.088c-2.264-17.103 11.966-36.224 24.935-40.726 2.314 17.476-1.385 13.009-11.115 21.374-5.233 4.48-10.247 10.866-13.82 19.352" clip-path="url(#b)" fill-rule="evenodd" clip-rule="evenodd" fill="#eb008b"/><path d="M145.955 184.394c-2.002.305-36.796 1.803-44.622 15.477-5.034-38.598 46.125-39.246 56.976-42.489-.929 5.077-3.417 22.87-12.354 27.012" clip-path="url(#b)" fill-rule="evenodd" clip-rule="evenodd" fill="#b2d34c"/><path d="M134.794 208.559c-1.488.055-27.058-1.74-33.877 7.612-.589-28.649 36.881-24.872 45.078-26.342-1.085 3.636-4.331 16.443-11.201 18.73" clip-path="url(#b)" fill-rule="evenodd" clip-rule="evenodd" fill="#c5579f"/><path d="M149.206 154.352c-3.407 1.992-36.017 2.513-48.152 21.377-4.754-34.514 38.981-40.59 56.976-43.637-.93 4.633.113 18.481-8.824 22.26" clip-path="url(#b)" fill-rule="evenodd" clip-rule="evenodd" fill="#f48245"/><path d="M63.012 105.62c7.804-27.904-.549-31.177-8.688-38.777-5.422 11.495-2.322 11.652 3.173 20.447 3.581 5.729 3.631 12.121 5.515 18.33" clip-path="url(#b)" fill-rule="evenodd" clip-rule="evenodd" fill="#54c0be"/><path d="M70.246 97.456c13.794-19.392 8.685-22.963 2.838-31.87-9.068 6.819-5.479 6.854-2.677 15.688 1.823 5.755-.121 10.695-.161 16.182" clip-path="url(#b)" fill-rule="evenodd" clip-rule="evenodd" fill="#ef8b69"/><path d="M97.457 105.62c-7.804-27.904.549-31.177 8.69-38.777 5.419 11.495 2.319 11.652-3.176 20.447-3.58 5.729-3.63 12.121-5.514 18.33" clip-path="url(#b)" fill-rule="evenodd" clip-rule="evenodd" fill="#ffd85c"/><path d="M90.315 97.456c-13.364-19.392-8.416-22.963-2.747-31.87 8.786 6.819 5.306 6.854 2.594 15.688-1.771 5.755.115 10.695.153 16.182" clip-path="url(#b)" fill-rule="evenodd" clip-rule="evenodd" fill="#c5579f"/><path d="M487.967 167.29l15.92 10.745C451.348-16.695 225.706-43.913 117.659 64.262 244.25-34.642 429.71 11.121 487.967 167.29" clip-path="url(#b)" fill-rule="evenodd" clip-rule="evenodd" fill="#ffd85c"/></svg>