<svg viewBox="0 0 50.83 50.83" xmlns="http://www.w3.org/2000/svg"><path d="m25.39 50.83a25.42 25.42 0 1 1 25.44-25.37 25.45 25.45 0 0 1 -25.44 25.37zm-7.54-19.31a11.73 11.73 0 0 1 15.15-17.94 11.3 11.3 0 0 1 4.11 7.72 11.61 11.61 0 0 1 -4.11 10.22l.53.18a24.92 24.92 0 0 1 5.74 2.77 27.78 27.78 0 0 1 3.67 2.89c.13.12.22.23.37 0a21.56 21.56 0 0 0 3.55-10.36 19.78 19.78 0 0 0 -1.19-8.73c-3.19-8.27-9.17-13.07-17.9-14.19a20.28 20.28 0 0 0 -15.69 4.5 21 21 0 0 0 -8 14.47 21.25 21.25 0 0 0 1.36 10.31 20.36 20.36 0 0 0 2.27 4.2 25.63 25.63 0 0 1 10.14-6.04zm7.42 2.74c-.67 0-1.52.05-2.36.16a21.36 21.36 0 0 0 -12.5 6c-.15.15-.19.23 0 .4a20.75 20.75 0 0 0 5.92 4.11 21.5 21.5 0 0 0 24.09-4.08c.16-.16.22-.26 0-.43-.49-.42-.94-.89-1.44-1.29a21.63 21.63 0 0 0 -13.71-4.87zm.13-3.91a7.81 7.81 0 1 0 -7.79-7.86 7.81 7.81 0 0 0 7.79 7.86z" fill="#999"/></svg>